<svg xmlns="http://www.w3.org/2000/svg" width="193" height="216" fill="none"><path fill="#38BEC3" d="M61.982 182.736c-1.611 6.471-2.355 20.13 1.463 25.287 3.47 4.661 10.412 5.305 15.073 4.884 9.718-.893 4.487-11.503 4.487-19.585"/><path stroke="#603813" stroke-linecap="round" stroke-linejoin="round" stroke-width="4.434" d="M61.982 182.736c-1.611 6.471-2.355 20.13 1.463 25.287 3.47 4.661 10.412 5.305 15.073 4.884 9.718-.893 4.487-11.503 4.487-19.585"/><path fill="#38BEC3" d="M131.869 182.736c1.611 6.471 2.355 20.13-1.463 25.287-3.47 4.661-10.412 5.305-15.073 4.884-9.718-.893-4.487-11.503-4.487-19.585"/><path stroke="#603813" stroke-linecap="round" stroke-linejoin="round" stroke-width="4.434" d="M131.869 182.736c1.611 6.471 2.355 20.13-1.463 25.287-3.47 4.661-10.412 5.305-15.073 4.884-9.718-.893-4.487-11.503-4.487-19.585"/><path fill="#38BEC3" stroke="#603813" stroke-linecap="round" stroke-linejoin="round" stroke-width="4.434" d="M137.521 168.407c0 19.56-18.37 26.774-41.03 26.774-22.659 0-41.029-7.214-41.029-26.774 0-19.56 18.37-49.434 41.03-49.434 22.659 0 41.029 29.874 41.029 49.434z"/><path stroke="#603813" stroke-dasharray="4.16 4.16" stroke-linecap="round" stroke-linejoin="round" stroke-width="2.079" d="M97 155v37.343"/><path fill="#EA4247" stroke="#603813" stroke-linecap="round" stroke-linejoin="round" stroke-width="2.079" d="M118.417 174.373c10.3-4.435 12.004-14.343 7.046-15.777-4.954-1.434-7.039 2.477-7.039 2.477s-2.086-3.911-7.043-2.477c-4.954 1.434-3.281 11.342 7.019 15.777h.017z"/><path fill="#F6C315" stroke="#603813" stroke-linecap="round" stroke-linejoin="round" stroke-width="1.732" d="M122.196 166.654a3.516 3.516 0 0 1-3.516 3.513 3.513 3.513 0 0 1 0-7.026 3.516 3.516 0 0 1 3.516 3.513z"/><path stroke="#603813" stroke-linecap="round" stroke-linejoin="round" stroke-width="2.079" d="M118.718 166.419s16.224-7.203 21.133 9.8"/><path fill="#603813" d="M143.128 181.759c.177.582-.329 1.251-1.129 1.493-.804.243-1.597-.031-1.774-.613l-1.573-5.169c-.176-.582.329-1.251 1.133-1.493.804-.246 1.597.028 1.771.61l1.572 5.172z"/><path fill="#38BEC3" d="M59.255 155.614s-7.983 14.602 5.082 20.75c10.76 5.058-2.553 16.437-4.264 15.792-14.18-5.206-23.551-24.543-5.132-40.707"/><path stroke="#603813" stroke-linecap="round" stroke-linejoin="round" stroke-width="4.434" d="M59.255 155.614s-7.983 14.602 5.082 20.75c10.76 5.058-2.553 16.437-4.264 15.792-14.18-5.206-23.551-24.543-5.132-40.707"/><path fill="#38BEC3" d="M135.661 154.549s9.297 13.065-3.842 19.039c-10.834 4.934 2.256 16.09 4.065 15.842 6.149-.769 26.849-18.321 1.513-38.079"/><path stroke="#603813" stroke-linecap="round" stroke-linejoin="round" stroke-width="4.434" d="M135.661 154.549s9.297 13.065-3.842 19.039c-10.834 4.934 2.256 16.09 4.065 15.842 6.149-.769 26.849-18.321 1.513-38.079"/><path fill="#F6C315" stroke="#603813" stroke-linecap="round" stroke-linejoin="round" stroke-width="5.32" d="M183.657 84.315c0 62.499-40.211 70.952-87.066 70.952-46.855 0-87.091-8.453-87.091-70.952C9.5 39.394 49.71 3 96.59 3c46.881 0 87.067 36.418 87.067 81.315z"/><path stroke="#603813" stroke-dasharray="4.46 4.46" stroke-linecap="round" stroke-linejoin="round" stroke-width="2.66" d="M96.59 148.723c-25.658 0-42.69-3.074-55.21-9.991-16.262-8.975-24.518-24.791-24.518-47.054 0-15.569 8.529-30.096 24.023-40.88C55.834 40.385 75.617 34.634 96.59 34.634s40.756 5.727 55.705 16.164c15.495 10.784 24.023 25.311 24.023 40.88 0 22.263-8.255 38.104-24.518 47.054-12.52 6.892-29.551 9.991-55.21 9.991z"/><path fill="#fff" stroke="#603813" stroke-linecap="round" stroke-linejoin="round" stroke-width="3.547" d="M170.815 95.967c0 45.541-33.244 53.301-74.25 53.301-41.004 0-74.249-7.735-74.249-53.301 0-29.427 33.245-53.301 74.25-53.301s74.249 23.849 74.249 53.3z"/><path fill="#F2ADBA" d="M45.248 111.982c0 3.273-2.677 5.95-5.95 5.95a5.951 5.951 0 0 1 0-11.9 5.952 5.952 0 0 1 5.95 5.95zm102.66 0c0 3.273 2.677 5.95 5.95 5.95 3.272 0 5.974-2.652 5.974-5.95 0-3.297-2.677-5.949-5.974-5.949a5.935 5.935 0 0 0-5.95 5.949z"/><path fill="#fff" stroke="#603813" stroke-linecap="round" stroke-linejoin="round" stroke-width="3.547" d="M37.637 28.287c0-1.933-2.132-3.495-4.288-5.082-8.653-6.42-20.875-4.636-27.32 3.992-6.446 8.627-4.661 20.824 3.991 27.245 2.851 2.132 5.479 2.876 7.958 2.653 0 0 19.709-7.86 19.66-28.783v-.025z"/><path stroke="#603813" stroke-linecap="round" stroke-linejoin="round" stroke-width="3.547" d="M29.729 34.956s-8.255-8.23-18.147 1.636"/><path fill="#fff" stroke="#603813" stroke-linecap="round" stroke-linejoin="round" stroke-width="3.547" d="M155.519 28.287c0-1.934 2.108-3.495 4.289-5.082 8.652-6.42 20.874-4.636 27.32 3.991 6.446 8.628 4.661 20.825-3.991 27.246-2.851 2.132-5.479 2.876-7.958 2.652 0 0-19.709-7.858-19.66-28.782v-.025z"/><path stroke="#603813" stroke-linecap="round" stroke-linejoin="round" stroke-width="3.694" d="M163.427 34.956s8.256-8.23 18.148 1.636"/><path stroke="#603813" stroke-dasharray="4.46 4.46" stroke-linecap="round" stroke-linejoin="round" stroke-width="2.66" d="M96.59 3v34.187"/><path fill="#E1F2F6" d="M114.515 121.452c0 7.636-8.033 13.809-17.924 13.809-9.892 0-17.924-6.198-17.924-13.809 0-7.611 8.032-13.809 17.924-13.809 9.891 0 17.924 6.173 17.924 13.809z"/><path fill="#603813" d="M101.772 114.263c0 1.438-2.306 3.57-5.132 3.57-2.826 0-5.132-2.132-5.132-3.57 0-1.438 2.306-2.628 5.132-2.628 2.826 0 5.132 1.165 5.132 2.628z"/><path fill="#fff" stroke="#603813" stroke-linecap="round" stroke-linejoin="round" stroke-width="1.773" d="M72.618 105.933c0 6.471-5.256 11.751-11.776 11.751s-11.776-5.256-11.776-11.751c0-6.495 5.28-11.75 11.776-11.75 6.495 0 11.776 5.255 11.776 11.75z"/><path fill="#603813" d="M66.94 105.933c0 3.347-2.726 6.074-6.098 6.074s-6.099-2.727-6.099-6.074c0-3.346 2.727-6.073 6.099-6.073 3.372 0 6.099 2.727 6.099 6.073z"/><path fill="#fff" stroke="#603813" stroke-linecap="round" stroke-linejoin="round" stroke-width="1.773" d="M144.884 105.933c0 6.471-5.256 11.751-11.776 11.751s-11.776-5.255-11.776-11.751c0-6.495 5.281-11.75 11.776-11.75s11.776 5.255 11.776 11.75z"/><path fill="#603813" d="M139.207 105.934c0 3.346-2.727 6.073-6.099 6.073-3.371 0-6.098-2.727-6.098-6.073 0-3.347 2.727-6.074 6.098-6.074 3.372 0 6.099 2.727 6.099 6.074z"/><path fill="#E94247" d="M136.505 121.824c0 10.933 2.9 16.808 6.47 13.065-3.57 3.743 2.926 4.686 14.453 2.107-11.527 2.579-16.238 7.14-10.461 10.165-5.752-3.025-4.661 3.421 2.479 14.354-7.115-10.933-12.941-13.983-12.941-6.768 0-7.19-5.801-4.14-12.941 6.768 7.115-10.933 8.23-17.379 2.479-14.354 5.751-3.025 1.066-7.586-10.462-10.165 11.528 2.579 18.023 1.636 14.453-2.107 3.57 3.743 6.471-2.132 6.471-13.065z"/><path fill="#E94247" d="M135.984 144.012c-1.612 2.876-5.231 3.917-8.107 2.33a5.947 5.947 0 0 1-2.33-8.082c1.586-2.875 5.231-3.917 8.106-2.33a5.949 5.949 0 0 1 2.331 8.082z"/><path fill="#E94247" d="M128.596 140.046a1.839 1.839 0 0 1-2.504.719l-20.056-11.082a1.838 1.838 0 0 1-.719-2.504 1.838 1.838 0 0 1 2.504-.719l20.056 11.082a1.837 1.837 0 0 1 .719 2.504z"/><path stroke="#603813" stroke-linecap="round" stroke-linejoin="round" stroke-width="2.66" d="m134.748 134.868-.002-.001a7.478 7.478 0 0 0-7.447.1l-26.792-14.803-.002-.001a3.839 3.839 0 0 0-5.197 1.48h0l-.006.01c-1.02 1.851-.35 4.178 1.493 5.18l26.804 14.81a7.535 7.535 0 0 0 3.85 6.33h0l.007.004c3.646 2.019 8.194.69 10.21-2.92 2.025-3.626.689-8.176-2.918-10.189z"/></svg>