<svg xmlns="http://www.w3.org/2000/svg" width="158" height="218" fill="none"><path fill="#F6C315" stroke="#603813" stroke-linecap="round" stroke-linejoin="round" stroke-width="4" d="M146.628 66.327c0 49.426-31.223 56.129-67.628 56.129s-67.628-6.703-67.628-56.129C11.372 30.803 42.595 2 79 2s67.628 28.803 67.628 64.327z"/><path stroke="#603813" stroke-dasharray="4 4" stroke-linecap="round" stroke-linejoin="round" stroke-width="2" d="M79 117.257c-19.926 0-33.158-2.439-42.879-7.895-12.636-7.089-19.046-19.615-19.046-37.23 0-12.316 6.63-23.806 18.661-32.343C47.346 31.555 62.714 27.016 79 27.016s31.655 4.539 43.264 12.773c12.031 8.538 18.661 20.027 18.661 32.343 0 17.606-6.41 30.132-19.046 37.23-9.73 5.456-22.953 7.895-42.879 7.895z"/><path fill="#fff" stroke="#603813" stroke-linecap="round" stroke-linejoin="round" stroke-width="2.5" d="M79 117.688c31.84 0 57.651-4.273 57.651-42.154 0-23.281-25.811-42.155-57.651-42.155-31.84 0-57.651 18.874-57.651 42.155 0 36.964 25.811 42.154 57.651 42.154z"/><path fill="#fff" stroke="#603813" stroke-linecap="round" stroke-linejoin="round" stroke-width="1.5" d="M60.238 83.31c0 5.08-4.053 9.206-9.069 9.206-5.016 0-9.069-4.126-9.069-9.206 0-5.08 4.063-9.216 9.07-9.216 5.006 0 9.068 4.117 9.068 9.216z"/><path fill="#603813" d="M55.855 83.31c0 2.622-2.1 4.759-4.686 4.759s-4.685-2.137-4.685-4.76c0-2.622 2.1-4.758 4.685-4.758 2.586 0 4.686 2.127 4.686 4.759z"/><path fill="#fff" stroke="#603813" stroke-linecap="round" stroke-linejoin="round" stroke-width="1.5" d="M115.882 83.31c0 5.08-4.054 9.206-9.07 9.206-5.015 0-9.069-4.126-9.069-9.206 0-5.08 4.063-9.216 9.069-9.216 5.007 0 9.07 4.117 9.07 9.216z"/><path fill="#603813" d="M111.498 83.31c0 2.622-2.09 4.759-4.686 4.759-2.595 0-4.685-2.137-4.685-4.76 0-2.622 2.1-4.758 4.685-4.758 2.586 0 4.686 2.127 4.686 4.759z"/><path fill="#E2F3F7" d="M93.094 96.001c0 6.107-6.309 11.068-14.094 11.068-7.785 0-14.103-4.952-14.103-11.068S71.206 84.933 79 84.933 93.094 89.885 93.094 96z"/><path stroke="#603813" stroke-linecap="round" stroke-linejoin="round" stroke-width="1.5" d="M79.101 93.25c0 1.348-1.366 2.448-3.054 2.448-1.054 0-1.98-.43-2.53-1.082m5.832-1.366c0 1.348 1.366 2.448 3.053 2.448 1.055 0 1.98-.43 2.531-1.082"/><path fill="#603813" d="M83.09 90.233c0 1.156-1.807 2.861-4.035 2.861s-4.035-1.696-4.035-2.86c0-1.165 1.807-2.1 4.035-2.1s4.035.935 4.035 2.1z"/><path fill="#F3AEBB" d="M39.138 88.197c0 2.596-2.072 4.705-4.63 4.705-2.559 0-4.631-2.1-4.631-4.705 0-2.604 2.072-4.704 4.63-4.704 2.559 0 4.631 2.11 4.631 4.704zm79.724 0c0 2.596 2.072 4.705 4.631 4.705 2.558 0 4.63-2.1 4.63-4.705 0-2.604-2.072-4.704-4.63-4.704-2.559 0-4.631 2.11-4.631 4.704z"/><path fill="#fff" stroke="#603813" stroke-linecap="round" stroke-linejoin="round" stroke-width="3" d="M33.224 22.009c0-1.532-1.65-2.76-3.329-4.026-6.722-5.08-16.222-3.668-21.22 3.155-5.006 6.822-3.612 16.469 3.1 21.558 2.22 1.678 4.255 2.284 6.172 2.09 0 0 15.313-6.216 15.277-22.768v-.01z"/><path stroke="#603813" stroke-linecap="round" stroke-linejoin="round" stroke-width="3" d="M27.08 27.282s-6.41-6.511-14.094 1.302"/><path fill="#fff" stroke="#603813" stroke-linecap="round" stroke-linejoin="round" stroke-width="3" d="M124.776 22.009c0-1.532 1.651-2.76 3.329-4.026 6.722-5.08 16.222-3.668 21.219 3.155 5.007 6.822 3.613 16.469-3.099 21.558-2.219 1.678-4.255 2.284-6.172 2.09 0 0-15.313-6.216-15.277-22.768v-.01z"/><path stroke="#603813" stroke-linecap="round" stroke-linejoin="round" stroke-width="3" d="M130.92 27.282s6.41-6.511 14.104 1.302"/><path stroke="#603813" stroke-dasharray="4 4" stroke-linecap="round" stroke-linejoin="round" stroke-width="2" d="M79 2v27.042"/><path fill="#603813" d="M36.057 216.457h-2.925c-2.384 0-3.989-2.457-3.017-4.64l6.832-15.368a3.307 3.307 0 0 1 3.017-1.963H46.3c2.632 0 4.209 2.935 2.742 5.135L38.79 214.99a3.3 3.3 0 0 1-2.742 1.467h.01zm86.986.826h2.925c2.385 0 3.989-2.458 3.017-4.64l-6.831-15.369a3.31 3.31 0 0 0-3.017-1.963H112.8c-2.631 0-4.209 2.935-2.741 5.136l10.252 15.368a3.3 3.3 0 0 0 2.741 1.468h-.009z"/><path fill="#fff" stroke="#603813" stroke-linecap="round" stroke-linejoin="round" stroke-width="4" d="M134.029 99.614H23.971c-12.134 0-21.97 9.837-21.97 21.971v64.52c0 12.134 9.836 21.971 21.97 21.971H134.03c12.134 0 21.971-9.837 21.971-21.971v-64.52c0-12.134-9.837-21.971-21.971-21.971z"/><path fill="#38BFC4" d="M94.8 109.371H36.91c-13.83 0-25.043 11.212-25.043 25.043v38.862c0 13.831 11.212 25.043 25.043 25.043H94.8c13.831 0 25.043-11.212 25.043-25.043v-38.862c0-13.831-11.212-25.043-25.043-25.043z"/><path fill="#603813" d="M94.79 111.205c12.82 0 23.21 10.389 23.21 23.209v38.862c0 12.82-10.39 23.209-23.21 23.209H36.9c-12.819 0-23.208-10.389-23.208-23.209v-38.862c0-12.82 10.39-23.209 23.209-23.209h57.89zm0-3.668H36.9c-14.818 0-26.876 12.058-26.876 26.877v38.862c0 14.819 12.058 26.877 26.877 26.877h57.89c14.818 0 26.877-12.058 26.877-26.877v-38.862c0-14.819-12.059-26.877-26.877-26.877z"/><mask id="a" width="106" height="86" x="13" y="111" maskUnits="userSpaceOnUse" style="mask-type:luminance"><path fill="#fff" d="M94.8 111.205H36.91c-12.818 0-23.21 10.391-23.21 23.209v38.862c0 12.818 10.392 23.209 23.21 23.209H94.8c12.818 0 23.209-10.391 23.209-23.209v-38.862c0-12.818-10.391-23.209-23.21-23.209z"/></mask><g mask="url(#a)"><path fill="#F4A6B2" d="M14.948 109.664h16.698v88.353H15.325a5.651 5.651 0 0 1-5.649-5.649v-77.431a5.28 5.28 0 0 1 5.273-5.273z"/><path fill="#EF4E51" d="M53.618 109.664H31.646v88.353h21.972v-88.353z"/><path fill="#37BEC1" d="M75.589 109.664H53.618v88.353h21.97v-88.353z"/><path fill="#F6C214" d="M97.57 109.664H75.597v88.353h21.971v-88.353z"/><path fill="#603813" d="M97.57 109.664h16.102a5.874 5.874 0 0 1 5.868 5.869v76.771a5.714 5.714 0 0 1-5.713 5.713H97.56v-88.353h.01z"/><path fill="#fff" d="M37.451 213.725h-46.62L69.142 77.881h46.62L37.451 213.725zm19.284 0H43.384l78.32-135.844h13.352l-78.32 135.844z" opacity=".2"/></g><path fill="#fff" stroke="#603813" stroke-linecap="round" stroke-linejoin="round" stroke-width="3" d="M135.909 138.43a9.325 9.325 0 0 0 9.325-9.325 9.325 9.325 0 0 0-9.325-9.326 9.325 9.325 0 0 0-9.326 9.326 9.325 9.325 0 0 0 9.326 9.325z"/><path fill="#E5F3F6" stroke="#603813" stroke-linecap="round" stroke-linejoin="round" stroke-width="3" d="M135.909 138.43a9.325 9.325 0 0 0 9.325-9.325 9.325 9.325 0 0 0-9.325-9.326 9.325 9.325 0 0 0-9.326 9.326 9.325 9.325 0 0 0 9.326 9.325z"/><path fill="#F6C214" stroke="#603813" stroke-linecap="round" stroke-linejoin="round" stroke-width="3" d="M135.909 154.661a5.272 5.272 0 1 0 0-10.545 5.272 5.272 0 0 0 0 10.545z"/><path fill="#F4A6B2" stroke="#603813" stroke-linecap="round" stroke-linejoin="round" stroke-width="3" d="M135.909 170.067a5.272 5.272 0 0 0 5.272-5.273 5.272 5.272 0 1 0-5.272 5.273z"/><path fill="#fff" stroke="#603813" stroke-linecap="round" stroke-linejoin="round" stroke-width="3" d="M142.594 125.689a2.026 2.026 0 1 0-2.866-2.866l-10.115 10.116a2.027 2.027 0 0 0 2.866 2.866l10.115-10.116z"/><path fill="#E5F3F6" stroke="#603813" stroke-linecap="round" stroke-linejoin="round" stroke-width="3" d="M142.594 125.689a2.026 2.026 0 1 0-2.866-2.866l-10.115 10.116a2.027 2.027 0 0 0 2.866 2.866l10.115-10.116z"/><path stroke="#603813" stroke-linecap="round" stroke-linejoin="round" stroke-width="3" d="M129.013 183.977h13.791m-13.791 4.87h13.791"/><path fill="#37BEC1" stroke="#603813" stroke-linecap="round" stroke-linejoin="round" stroke-width="3" d="M40.303 99.898c0 4.237-3.439 5.099-7.675 5.099-4.237 0-7.676-.862-7.676-5.099 0-4.236 3.44-6.309 7.676-6.309 4.236 0 7.675 2.073 7.675 6.31zm92.735 0c0 4.237-3.438 5.099-7.675 5.099-4.236 0-7.675-.862-7.675-5.099 0-4.236 3.439-6.309 7.675-6.309 4.237 0 7.675 2.073 7.675 6.31z"/></svg>